<svg xmlns="http://www.w3.org/2000/svg" viewBox="0 0 30.15 21.77"><defs><style>.cls-1{fill:#7b868c;}.cls-2{fill:#8e1537;}</style></defs><title>Asset 4</title><g id="Layer_2" data-name="Layer 2"><g id="Layer_1-2" data-name="Layer 1"><path class="cls-1" d="M14.89,19.73a2.49,2.49,0,0,1-2,2,2.92,2.92,0,0,1-2.71-.62.72.72,0,0,1,.58-1.16,3.64,3.64,0,0,1,1.47.4C12.93,20.6,14.45,20.56,14.89,19.73Z"/><path class="cls-1" d="M5.43,13.65a4.34,4.34,0,0,0-2.12-.76c-1,0-2,.06-2.56-.75s.6-1.44,1.48-1.06A21.57,21.57,0,0,1,5.43,13.65Z"/><path class="cls-1" d="M.71,10.78c-.23,0-.44.05-.62-.16s0-.91,1-.56a13.81,13.81,0,0,0,2.17.75S1.77,10.74.71,10.78Z"/><path class="cls-1" d="M5.2,12.86a12.41,12.41,0,0,1-1.51-1c-.58-.51-.5-.9-.13-.94S4.61,11.3,5.2,12.86Z"/><path class="cls-1" d="M3.54,7.55s-1.87-.14-2.33-.73.25-.94,1.17-.12S3.54,7.55,3.54,7.55Z"/><path class="cls-1" d="M3.52,7.12A1.92,1.92,0,0,1,2.3,5.76C2.18,4.79,3.41,6.21,3.52,7.12Z"/><path class="cls-1" d="M3.5,6.42s1.09-1.2.6-1.55S3,5.26,3.5,6.42Z"/><path class="cls-1" d="M14.89,18.7s-.78,0-2-2.25c-1.11-2-2.2-1.91-3.17-1.83a1.71,1.71,0,0,1-1-3.22c1.88-1.17,4,.2,4.82,2.09S14,18.17,14.89,18.7Z"/><path class="cls-1" d="M7.67,11.58S6.84,9,4.92,8.22s-1.16-2.07-.37-2A4.41,4.41,0,0,1,7.67,11.58Z"/><path class="cls-1" d="M14.89,19.26a2.08,2.08,0,0,1-2.66.47,1.86,1.86,0,0,0-2.88.87c-.57,1-2.58,1-2.88-.19s1.39-2.86,3.77-2.12S13.14,20.09,14.89,19.26Z"/><path class="cls-1" d="M14.73,19a2.1,2.1,0,0,1-2.27-.49,2.75,2.75,0,0,0-2.22-1.22c-1-.16-1.67-1-1.16-1.64s2.33-.87,3.38,1.07S13.84,19,14.73,19Z"/><path class="cls-1" d="M7.27,12.21a8.07,8.07,0,0,0-2.33-1.5c-1.18-.36-3.2-.33-4.15-1.22a1.19,1.19,0,0,1,1-2.1A6.92,6.92,0,0,1,7.27,12.21Z"/><path class="cls-1" d="M14.73,12.39a7,7,0,0,0-1.12-3.16A20.78,20.78,0,0,1,12,7.42c-.19-.29-.49-1,.06-1.32s1.55-.1,2.12,1.45A8.62,8.62,0,0,1,14.73,12.39Z"/><path class="cls-1" d="M14.87,5.8s0-1.55-2.22-2.73S10.38.89,10.83.52,12.49.73,13.37,2A7.12,7.12,0,0,1,14.87,5.8Z"/><path class="cls-1" d="M6.45,6.21a9.62,9.62,0,0,0-.09-2.55c-.3-.69-1-.81-.86-1.27s1.14-.63,1.43.5A5.05,5.05,0,0,1,6.45,6.21Z"/><path class="cls-1" d="M11.51,6.09A3.87,3.87,0,0,0,10,4.33C9.26,4,8.89,3.41,9,3c.18-.58.86-.42,1.18-.2A3.65,3.65,0,0,1,11.51,6.09Z"/><path class="cls-1" d="M6.1,17.19a1.75,1.75,0,0,0-.94,1.23.84.84,0,0,0,.51,1,.8.8,0,0,0,.59-.05,1.28,1.28,0,0,0,.62-.79c.19-.54.68-.67,1.63-.73s1.85.33,2.55-.09A3.6,3.6,0,0,1,9,17.26,3.28,3.28,0,0,0,6.1,17.19Z"/><path class="cls-1" d="M8.72,15.4A4.94,4.94,0,0,1,6.1,13.83c-1.51-1.47,0-2.34.49-1.81C7.27,12.7,6.62,13.89,8.72,15.4Z"/><path class="cls-1" d="M14.73,15.8s-.47-3.93-2.56-4.7-3.38-.19-3.82-1.61,2.53-2.63,4.47-.28S14.73,15.8,14.73,15.8Z"/><path class="cls-1" d="M4.68,15.63c1.25-.24,3.1-.14,4,1,0,0-1.57-.82-2.59,0A18.1,18.1,0,0,1,4.69,18a1.19,1.19,0,0,1-1.78-.62,1.12,1.12,0,0,1,.32-1A3,3,0,0,1,4.68,15.63Z"/><path class="cls-1" d="M12,8a4.73,4.73,0,0,0-3-.41,1.94,1.94,0,0,1-2-.3.82.82,0,0,1,.08-1.14C7.78,5.39,10.52,6,12,8Z"/><path class="cls-1" d="M8.49,1.93A4.4,4.4,0,0,1,7.09,5.8a4.6,4.6,0,0,0,.2-2.95A1.87,1.87,0,0,1,7.1,1.68C7.38.89,8.3,1.09,8.49,1.93Z"/><path class="cls-1" d="M14.86,8.4s-.23-2-1.27-2.6a5.84,5.84,0,0,1-1.81-1.25c-.29-.43-.13-1.22.76-1S15,5.32,14.86,8.4Z"/><path class="cls-1" d="M3.17,15.8a2.84,2.84,0,0,1-.54.48A.55.55,0,0,1,2,16.2c-.39-.39,0-1.4,1.18-1.53a9.1,9.1,0,0,1,3.21.62S4.13,15,3.17,15.8Z"/><path class="cls-1" d="M2.68,14.53c-.14,0-.9,0-.69-.64.11-.3.53-.51,1.07-.57a3.7,3.7,0,0,1,2.58.77,11.5,11.5,0,0,0,3,1.7,8.39,8.39,0,0,1-2.6-1,3.64,3.64,0,0,0-2.39-.4C3.19,14.48,2.91,14.52,2.68,14.53Z"/><path class="cls-1" d="M6.36,6.68S4.5,5.93,4.63,4.53,6.05,3,6.05,4.33A4.33,4.33,0,0,0,6.36,6.68Z"/><path class="cls-1" d="M9.33,4.42a3.92,3.92,0,0,1,1.79,2A2,2,0,0,0,9.79,5.8a2.31,2.31,0,0,1-1.22-.4.68.68,0,0,1-.19-.76A.7.7,0,0,1,9.33,4.42Z"/><path class="cls-1" d="M11.34,3.61A2.78,2.78,0,0,0,9.52,2.15C8.81,2,8.88.81,9.93,1.28A2.61,2.61,0,0,1,11.34,3.61Z"/><path class="cls-1" d="M14,.37a3.29,3.29,0,0,1,.73,3.54A3.66,3.66,0,0,0,13.41,1.2c-.91-.57-.82-1-.59-1.14A1.21,1.21,0,0,1,14,.37Z"/><path class="cls-2" d="M15.26,19.73a2.47,2.47,0,0,0,2,2A2.92,2.92,0,0,0,20,21.08a.72.72,0,0,0-.58-1.16,3.64,3.64,0,0,0-1.47.4C17.22,20.6,15.7,20.56,15.26,19.73Z"/><path class="cls-2" d="M24.72,13.65a4.33,4.33,0,0,1,2.11-.76c1.05,0,2,.06,2.57-.75s-.6-1.44-1.48-1.06A21.57,21.57,0,0,0,24.72,13.65Z"/><path class="cls-2" d="M29.44,10.78c.22,0,.44.05.62-.16s0-.91-1-.56a13.81,13.81,0,0,1-2.17.75S28.38,10.74,29.44,10.78Z"/><path class="cls-2" d="M25,12.86a12.41,12.41,0,0,0,1.51-1c.58-.51.5-.9.12-.94S25.54,11.3,25,12.86Z"/><path class="cls-2" d="M26.61,7.55s1.87-.14,2.33-.73-.25-.94-1.17-.12S26.61,7.55,26.61,7.55Z"/><path class="cls-2" d="M26.63,7.12a1.9,1.9,0,0,0,1.21-1.36C28,4.79,26.74,6.21,26.63,7.12Z"/><path class="cls-2" d="M26.64,6.42s-1.09-1.2-.59-1.55S27.13,5.26,26.64,6.42Z"/><path class="cls-2" d="M15.26,18.7s.78,0,2-2.25c1.11-2,2.2-1.91,3.17-1.83a1.71,1.71,0,0,0,1-3.22c-1.88-1.17-4,.2-4.82,2.09S16.11,18.17,15.26,18.7Z"/><path class="cls-2" d="M22.48,11.58S23.31,9,25.23,8.22s1.16-2.07.37-2A4.41,4.41,0,0,0,22.48,11.58Z"/><path class="cls-2" d="M15.26,19.26a2.08,2.08,0,0,0,2.66.47,1.86,1.86,0,0,1,2.88.87c.57,1,2.58,1,2.88-.19s-1.39-2.86-3.77-2.12S17,20.09,15.26,19.26Z"/><path class="cls-2" d="M15.42,19a2.1,2.1,0,0,0,2.27-.49,2.77,2.77,0,0,1,2.22-1.22c1-.16,1.67-1,1.16-1.64s-2.33-.87-3.38,1.07S16.31,19,15.42,19Z"/><path class="cls-2" d="M22.88,12.21a7.92,7.92,0,0,1,2.33-1.5c1.18-.36,3.2-.33,4.15-1.22a1.19,1.19,0,0,0-1-2.1A6.92,6.92,0,0,0,22.88,12.21Z"/><path class="cls-2" d="M15.42,12.39a6.83,6.83,0,0,1,1.12-3.16,20.78,20.78,0,0,0,1.64-1.81c.19-.29.49-1-.06-1.32S16.57,6,16,7.55A8.53,8.53,0,0,0,15.42,12.39Z"/><path class="cls-2" d="M15.28,5.8s0-1.55,2.22-2.73S19.77.89,19.32.52,17.66.73,16.78,2A7.12,7.12,0,0,0,15.28,5.8Z"/><path class="cls-2" d="M23.7,6.21a9.62,9.62,0,0,1,.09-2.55c.3-.69,1-.81.86-1.27s-1.14-.63-1.43.5A5.05,5.05,0,0,0,23.7,6.21Z"/><path class="cls-2" d="M18.63,6.09a3.93,3.93,0,0,1,1.54-1.76c.72-.38,1.09-.92,1-1.3-.18-.58-.86-.42-1.18-.2A3.68,3.68,0,0,0,18.63,6.09Z"/><path class="cls-2" d="M24.05,17.19A1.75,1.75,0,0,1,25,18.42a.84.84,0,0,1-.51,1,.79.79,0,0,1-.59-.05,1.28,1.28,0,0,1-.62-.79c-.19-.54-.69-.67-1.64-.73s-1.84.33-2.54-.09a3.6,3.6,0,0,0,2.05-.47A3.28,3.28,0,0,1,24.05,17.19Z"/><path class="cls-2" d="M21.43,15.4a4.94,4.94,0,0,0,2.62-1.57c1.51-1.47,0-2.34-.49-1.81C22.88,12.7,23.53,13.89,21.43,15.4Z"/><path class="cls-2" d="M15.42,15.8s.47-3.93,2.56-4.7,3.39-.19,3.82-1.61-2.53-2.63-4.47-.28S15.42,15.8,15.42,15.8Z"/><path class="cls-2" d="M25.47,15.63c-1.25-.24-3.09-.14-4,1,0,0,1.57-.82,2.59,0A18.1,18.1,0,0,0,25.46,18a1.19,1.19,0,0,0,1.78-.62,1.1,1.1,0,0,0-.33-1A2.88,2.88,0,0,0,25.47,15.63Z"/><path class="cls-2" d="M18.16,8a4.71,4.71,0,0,1,3-.41,2,2,0,0,0,2-.3.82.82,0,0,0-.08-1.14C22.37,5.39,19.63,6,18.16,8Z"/><path class="cls-2" d="M21.66,1.93A4.41,4.41,0,0,0,23.05,5.8a4.63,4.63,0,0,1-.19-2.95,1.87,1.87,0,0,0,.19-1.17C22.77.89,21.85,1.09,21.66,1.93Z"/><path class="cls-2" d="M15.29,8.4s.22-2,1.27-2.6a5.72,5.72,0,0,0,1.81-1.25c.29-.43.13-1.22-.76-1S15.13,5.32,15.29,8.4Z"/><path class="cls-2" d="M27,15.8a3.62,3.62,0,0,0,.54.48.57.57,0,0,0,.67-.08c.39-.39,0-1.4-1.18-1.53a9.1,9.1,0,0,0-3.21.62S26,15,27,15.8Z"/><path class="cls-2" d="M27.47,14.53c.14,0,.91,0,.69-.64-.11-.3-.53-.51-1.07-.57a3.7,3.7,0,0,0-2.58.77,11.5,11.5,0,0,1-3,1.7,8.39,8.39,0,0,0,2.6-1,3.64,3.64,0,0,1,2.39-.4C27,14.48,27.24,14.52,27.47,14.53Z"/><path class="cls-2" d="M23.79,6.68s1.86-.75,1.73-2.15S24.09,3,24.09,4.33A4.34,4.34,0,0,1,23.79,6.68Z"/><path class="cls-2" d="M20.81,4.42a4,4,0,0,0-1.78,2,2,2,0,0,1,1.33-.66,2.34,2.34,0,0,0,1.22-.4.68.68,0,0,0,.19-.76A.71.71,0,0,0,20.81,4.42Z"/><path class="cls-2" d="M18.81,3.61a2.78,2.78,0,0,1,1.82-1.46c.7-.12.64-1.34-.41-.87A2.61,2.61,0,0,0,18.81,3.61Z"/><path class="cls-2" d="M16.15.37a3.29,3.29,0,0,0-.73,3.54A3.66,3.66,0,0,1,16.74,1.2c.91-.57.82-1,.58-1.14A1.19,1.19,0,0,0,16.15.37Z"/></g></g></svg>