<svg xmlns="http://www.w3.org/2000/svg" viewBox="0 0 89.4 44.31"><defs><style>.cls-1{fill:#7b868c;}.cls-2{fill:#8e1537;}</style></defs><title>Asset 2</title><g id="Layer_2" data-name="Layer 2"><g id="Layer_1-2" data-name="Layer 1"><path class="cls-1" d="M44.52,19.73a2.49,2.49,0,0,1-2,2,2.94,2.94,0,0,1-2.71-.62.73.73,0,0,1,.58-1.16,3.68,3.68,0,0,1,1.48.4C42.55,20.6,44.08,20.56,44.52,19.73Z"/><path class="cls-1" d="M35.06,13.65a4.34,4.34,0,0,0-2.12-.76c-1,0-2,.06-2.57-.75s.6-1.44,1.49-1.06A22.13,22.13,0,0,1,35.06,13.65Z"/><path class="cls-1" d="M30.34,10.78c-.23,0-.44.05-.63-.16s0-.91,1-.56a13.53,13.53,0,0,0,2.18.75S31.39,10.74,30.34,10.78Z"/><path class="cls-1" d="M34.83,12.86a11.63,11.63,0,0,1-1.51-1c-.59-.51-.5-.9-.13-.94S34.23,11.3,34.83,12.86Z"/><path class="cls-1" d="M33.17,7.55s-1.88-.14-2.34-.73.25-.94,1.17-.12S33.17,7.55,33.17,7.55Z"/><path class="cls-1" d="M33.14,7.12a1.9,1.9,0,0,1-1.21-1.36C31.81,4.79,33,6.21,33.14,7.12Z"/><path class="cls-1" d="M33.13,6.42s1.09-1.2.59-1.55S32.64,5.26,33.13,6.42Z"/><path class="cls-1" d="M44.52,18.7s-.79,0-2.05-2.25c-1.11-2-2.2-1.91-3.17-1.83a1.71,1.71,0,0,1-1-3.22c1.88-1.17,4,.2,4.83,2.09S43.66,18.17,44.52,18.7Z"/><path class="cls-1" d="M37.29,11.58S36.46,9,34.54,8.22s-1.16-2.07-.37-2S38,7.75,37.29,11.58Z"/><path class="cls-1" d="M44.52,19.26a2.08,2.08,0,0,1-2.66.47A1.87,1.87,0,0,0,39,20.6c-.56,1-2.58,1-2.88-.19s1.4-2.86,3.78-2.12S42.77,20.09,44.52,19.26Z"/><path class="cls-1" d="M44.35,19a2.08,2.08,0,0,1-2.26-.49,2.77,2.77,0,0,0-2.22-1.22c-1-.16-1.67-1-1.17-1.64s2.33-.87,3.39,1.07S43.47,19,44.35,19Z"/><path class="cls-1" d="M36.9,12.21a8.07,8.07,0,0,0-2.33-1.5c-1.18-.36-3.21-.33-4.15-1.22a1.19,1.19,0,0,1,1-2.1A6.93,6.93,0,0,1,36.9,12.21Z"/><path class="cls-1" d="M44.35,12.39a6.83,6.83,0,0,0-1.12-3.16A22.16,22.16,0,0,1,41.6,7.42c-.2-.29-.5-1,.06-1.32S43.2,6,43.78,7.55A8.5,8.5,0,0,1,44.35,12.39Z"/><path class="cls-1" d="M44.5,5.8s0-1.55-2.23-2.73S40,.89,40.45.52,42.11.73,43,2A7.13,7.13,0,0,1,44.5,5.8Z"/><path class="cls-1" d="M36.07,6.21A9.62,9.62,0,0,0,36,3.66c-.29-.69-1-.81-.86-1.27s1.15-.63,1.43.5A4.93,4.93,0,0,1,36.07,6.21Z"/><path class="cls-1" d="M41.14,6.09a3.87,3.87,0,0,0-1.53-1.76c-.72-.38-1.09-.92-1-1.3.18-.58.86-.42,1.19-.2A3.67,3.67,0,0,1,41.14,6.09Z"/><path class="cls-1" d="M35.72,17.19a1.73,1.73,0,0,0-.93,1.23.84.84,0,0,0,.5,1,.79.79,0,0,0,.59-.05,1.25,1.25,0,0,0,.62-.79c.2-.54.69-.67,1.64-.73s1.84.33,2.54-.09a3.58,3.58,0,0,1-2-.47A3.3,3.3,0,0,0,35.72,17.19Z"/><path class="cls-1" d="M38.34,15.4a4.94,4.94,0,0,1-2.62-1.57c-1.5-1.47,0-2.34.5-1.81C36.9,12.7,36.25,13.89,38.34,15.4Z"/><path class="cls-1" d="M44.35,15.8s-.46-3.93-2.56-4.7S38.41,10.91,38,9.49s2.53-2.63,4.48-.28S44.35,15.8,44.35,15.8Z"/><path class="cls-1" d="M34.3,15.63c1.26-.24,3.1-.14,4,1,0,0-1.57-.82-2.58,0-.64.52-1,1.05-1.44,1.32a1.2,1.2,0,0,1-1.79-.62,1.15,1.15,0,0,1,.33-1A2.88,2.88,0,0,1,34.3,15.63Z"/><path class="cls-1" d="M41.62,8a4.73,4.73,0,0,0-3-.41,1.94,1.94,0,0,1-2-.3.82.82,0,0,1,.07-1.14C37.41,5.39,40.14,6,41.62,8Z"/><path class="cls-1" d="M38.11,1.93A4.41,4.41,0,0,1,36.72,5.8a4.56,4.56,0,0,0,.19-2.95,1.85,1.85,0,0,1-.18-1.17C37,.89,37.93,1.09,38.11,1.93Z"/><path class="cls-1" d="M44.49,8.4s-.23-2-1.28-2.6a5.78,5.78,0,0,1-1.8-1.25c-.3-.43-.14-1.22.76-1S44.64,5.32,44.49,8.4Z"/><path class="cls-1" d="M32.8,15.8a3.18,3.18,0,0,1-.54.48.55.55,0,0,1-.66-.08c-.4-.39,0-1.4,1.18-1.53a9,9,0,0,1,3.2.62S33.76,15,32.8,15.8Z"/><path class="cls-1" d="M32.3,14.53c-.14,0-.9,0-.68-.64.1-.3.52-.51,1.07-.57a3.68,3.68,0,0,1,2.57.77,11.44,11.44,0,0,0,3,1.7,8.39,8.39,0,0,1-2.6-1,3.67,3.67,0,0,0-2.4-.4C32.82,14.48,32.53,14.52,32.3,14.53Z"/><path class="cls-1" d="M36,6.68s-1.85-.75-1.72-2.15,1.42-1.52,1.42-.2A4.34,4.34,0,0,0,36,6.68Z"/><path class="cls-1" d="M39,4.42a3.9,3.9,0,0,1,1.78,2,2,2,0,0,0-1.33-.66,2.34,2.34,0,0,1-1.22-.4A.68.68,0,0,1,38,4.64.7.7,0,0,1,39,4.42Z"/><path class="cls-1" d="M41,3.61a2.74,2.74,0,0,0-1.81-1.46c-.71-.12-.65-1.34.41-.87A2.62,2.62,0,0,1,41,3.61Z"/><path class="cls-1" d="M43.62.37a3.26,3.26,0,0,1,.73,3.54A3.64,3.64,0,0,0,43,1.2c-.91-.57-.82-1-.59-1.14A1.18,1.18,0,0,1,43.62.37Z"/><path class="cls-2" d="M44.88,19.73a2.49,2.49,0,0,0,2,2,2.94,2.94,0,0,0,2.71-.62A.73.73,0,0,0,49,19.92a3.64,3.64,0,0,0-1.48.4C46.84,20.6,45.32,20.56,44.88,19.73Z"/><path class="cls-2" d="M54.34,13.65a4.34,4.34,0,0,1,2.12-.76c1,0,2,.06,2.57-.75s-.61-1.44-1.49-1.06A22.13,22.13,0,0,0,54.34,13.65Z"/><path class="cls-2" d="M59.06,10.78c.23,0,.44.05.62-.16s0-.91-1-.56a13.53,13.53,0,0,1-2.18.75S58,10.74,59.06,10.78Z"/><path class="cls-2" d="M54.57,12.86a11.63,11.63,0,0,0,1.51-1c.58-.51.5-.9.13-.94S55.17,11.3,54.57,12.86Z"/><path class="cls-2" d="M56.23,7.55s1.88-.14,2.34-.73-.25-.94-1.17-.12S56.23,7.55,56.23,7.55Z"/><path class="cls-2" d="M56.26,7.12a1.9,1.9,0,0,0,1.21-1.36C57.59,4.79,56.37,6.21,56.26,7.12Z"/><path class="cls-2" d="M56.27,6.42s-1.09-1.2-.59-1.55S56.75,5.26,56.27,6.42Z"/><path class="cls-2" d="M44.88,18.7s.78,0,2-2.25c1.11-2,2.19-1.91,3.17-1.83a1.71,1.71,0,0,0,1-3.22c-1.88-1.17-4,.2-4.83,2.09S45.74,18.17,44.88,18.7Z"/><path class="cls-2" d="M52.1,11.58S52.93,9,54.85,8.22s1.16-2.07.38-2S51.43,7.75,52.1,11.58Z"/><path class="cls-2" d="M44.88,19.26a2.08,2.08,0,0,0,2.66.47,1.87,1.87,0,0,1,2.89.87c.56,1,2.58,1,2.88-.19s-1.4-2.86-3.78-2.12S46.63,20.09,44.88,19.26Z"/><path class="cls-2" d="M45.05,19a2.08,2.08,0,0,0,2.26-.49,2.77,2.77,0,0,1,2.22-1.22c1-.16,1.67-1,1.17-1.64s-2.33-.87-3.39,1.07S45.93,19,45.05,19Z"/><path class="cls-2" d="M52.5,12.21a8.07,8.07,0,0,1,2.33-1.5C56,10.35,58,10.38,59,9.49a1.19,1.19,0,0,0-1-2.1A6.93,6.93,0,0,0,52.5,12.21Z"/><path class="cls-2" d="M45.05,12.39a6.83,6.83,0,0,1,1.12-3.16A22.16,22.16,0,0,0,47.8,7.42c.19-.29.5-1-.06-1.32S46.19,6,45.62,7.55A8.5,8.5,0,0,0,45.05,12.39Z"/><path class="cls-2" d="M44.9,5.8S45,4.25,47.13,3.07,49.39.89,49,.52,47.29.73,46.41,2A7.13,7.13,0,0,0,44.9,5.8Z"/><path class="cls-2" d="M53.33,6.21a10,10,0,0,1,.08-2.55c.3-.69,1-.81.87-1.27s-1.15-.63-1.43.5A4.93,4.93,0,0,0,53.33,6.21Z"/><path class="cls-2" d="M48.26,6.09a3.87,3.87,0,0,1,1.53-1.76c.72-.38,1.09-.92,1-1.3-.17-.58-.85-.42-1.18-.2A3.67,3.67,0,0,0,48.26,6.09Z"/><path class="cls-2" d="M53.68,17.19a1.73,1.73,0,0,1,.93,1.23.85.85,0,0,1-.5,1,.82.82,0,0,1-.6-.05,1.26,1.26,0,0,1-.61-.79c-.2-.54-.69-.67-1.64-.73s-1.84.33-2.54-.09a3.58,3.58,0,0,0,2-.47A3.3,3.3,0,0,1,53.68,17.19Z"/><path class="cls-2" d="M51.06,15.4a4.94,4.94,0,0,0,2.62-1.57c1.5-1.47,0-2.34-.5-1.81C52.5,12.7,53.15,13.89,51.06,15.4Z"/><path class="cls-2" d="M45.05,15.8s.46-3.93,2.56-4.7,3.38-.19,3.82-1.61S48.89,6.86,47,9.21,45.05,15.8,45.05,15.8Z"/><path class="cls-2" d="M55.09,15.63c-1.25-.24-3.09-.14-4,1,0,0,1.57-.82,2.58,0,.64.52,1,1.05,1.44,1.32a1.2,1.2,0,0,0,1.79-.62,1.15,1.15,0,0,0-.33-1A2.93,2.93,0,0,0,55.09,15.63Z"/><path class="cls-2" d="M47.78,8a4.73,4.73,0,0,1,3-.41,1.94,1.94,0,0,0,2-.3.82.82,0,0,0-.07-1.14C52,5.39,49.26,6,47.78,8Z"/><path class="cls-2" d="M51.29,1.93A4.39,4.39,0,0,0,52.68,5.8a4.56,4.56,0,0,1-.19-2.95,1.85,1.85,0,0,0,.18-1.17C52.39.89,51.47,1.09,51.29,1.93Z"/><path class="cls-2" d="M44.91,8.4s.23-2,1.28-2.6A5.78,5.78,0,0,0,48,4.55c.3-.43.14-1.22-.76-1S44.76,5.32,44.91,8.4Z"/><path class="cls-2" d="M56.6,15.8a3.18,3.18,0,0,0,.54.48.55.55,0,0,0,.66-.08c.4-.39,0-1.4-1.18-1.53a9.1,9.1,0,0,0-3.21.62S55.64,15,56.6,15.8Z"/><path class="cls-2" d="M57.1,14.53c.14,0,.9,0,.69-.64-.11-.3-.53-.51-1.08-.57a3.72,3.72,0,0,0-2.58.77,11.31,11.31,0,0,1-3,1.7,8.39,8.39,0,0,0,2.6-1,3.67,3.67,0,0,1,2.4-.4C56.58,14.48,56.87,14.52,57.1,14.53Z"/><path class="cls-2" d="M53.41,6.68s1.86-.75,1.73-2.15S53.72,3,53.72,4.33A4.24,4.24,0,0,1,53.41,6.68Z"/><path class="cls-2" d="M50.44,4.42a3.9,3.9,0,0,0-1.78,2A2,2,0,0,1,50,5.8a2.34,2.34,0,0,0,1.22-.4.68.68,0,0,0,.18-.76A.7.7,0,0,0,50.44,4.42Z"/><path class="cls-2" d="M48.44,3.61a2.74,2.74,0,0,1,1.81-1.46C51,2,50.9.81,49.84,1.28A2.62,2.62,0,0,0,48.44,3.61Z"/><path class="cls-2" d="M45.78.37a3.28,3.28,0,0,0-.73,3.54A3.62,3.62,0,0,1,46.37,1.2c.9-.57.81-1,.58-1.14A1.18,1.18,0,0,0,45.78.37Z"/><path class="cls-2" d="M60.73,33s.38,0,.38.37v6.78a1.53,1.53,0,0,0,.17.65,2,2,0,0,0,.39.55,2.07,2.07,0,0,0,.54.39,1.62,1.62,0,0,0,.65.14h4c.25,0,.25.37.25.44v1.75a.22.22,0,0,1-.25.24H62A3.64,3.64,0,0,1,60.34,44a3.85,3.85,0,0,1-1.25-1,4.09,4.09,0,0,1-.69-1.56,7.69,7.69,0,0,1-.19-1.66v-6.4c0-.35.27-.37.27-.37Z"/><path class="cls-2" d="M70.46,33s.37,0,.37.37v6.78a1.53,1.53,0,0,0,.17.65,2,2,0,0,0,.94.94,1.53,1.53,0,0,0,.64.14h4c.24,0,.24.37.24.44v1.75a.22.22,0,0,1-.24.24H71.68A3.64,3.64,0,0,1,70.06,44a3.71,3.71,0,0,1-1.24-1,4,4,0,0,1-.7-1.56,7.69,7.69,0,0,1-.19-1.66v-6.4c0-.35.27-.37.27-.37Z"/><path class="cls-2" d="M89.4,38.71v5.6H78.19s-.24,0-.24-.24V42.2a.27.27,0,0,1,0-.11.6.6,0,0,1,.08-.13l2.76-4.66c.1-.17.18-.18.37-.18h2.38l-2.13,3.93a.83.83,0,0,0-.11.2c0,.06-.31.52,0,.52h5.53v-3.3a2.83,2.83,0,0,0-.19-1,4.26,4.26,0,0,0-.52-1,3.13,3.13,0,0,0-.78-.76,1.54,1.54,0,0,0-.92-.31H78.19s-.24,0-.24-.19v-2c0-.25.48-.24.48-.24h5.81a4.64,4.64,0,0,1,2.11.48A5.14,5.14,0,0,1,88,34.74a5.51,5.51,0,0,1,1,1.83A6.22,6.22,0,0,1,89.4,38.71Z"/><path class="cls-2" d="M18.79,36.05a4.59,4.59,0,0,0-.59-1.17,5,5,0,0,0-.89-1,6.72,6.72,0,0,0-1.13-.75,10.29,10.29,0,0,0-1-.16H10.55V35l-.62-.57a7.34,7.34,0,0,0-.79-.64,5.75,5.75,0,0,0-.9-.53A2.29,2.29,0,0,0,7.3,33H.66a.43.43,0,0,0-.15,0,1.43,1.43,0,0,0-.22.15,1.8,1.8,0,0,0-.2.18.25.25,0,0,0-.09.15V44.07a.24.24,0,0,0,.24.24H2.62c.27,0,.27-.16.27-.24V35.39H6.07A2.08,2.08,0,0,1,8,37.47v.15H8v6.45a.24.24,0,0,0,.24.24H10.6c.27,0,.27-.16.27-.24V40.22h0V35.39h3.07A2.08,2.08,0,0,1,16,37.47V39h0v5.11a.24.24,0,0,0,.25.25h2.45c.27,0,.28-.17.28-.25V37.41A4.3,4.3,0,0,0,18.79,36.05Z"/><path class="cls-2" d="M31.67,42.2h0v-.13h0a.22.22,0,0,0-.23-.14h-6.3a1.71,1.71,0,0,1-.95-.31,3.29,3.29,0,0,1-.79-.79,4.33,4.33,0,0,1-.55-1,3,3,0,0,1-.2-1,3.82,3.82,0,0,1,.18-1.14,3.86,3.86,0,0,1,.54-1.05,3.12,3.12,0,0,1,.86-.76,2.25,2.25,0,0,1,1.16-.3h2.87c0,.08,0,.14,0,.18a.61.61,0,0,1,0,.14.85.85,0,0,1-.11.36L26,40v.24h2.37a.37.37,0,0,0,.19-.08.54.54,0,0,0,.15-.16l2.81-4.65a1.64,1.64,0,0,1,.07-.15.4.4,0,0,0,.06-.11V33.24s0-.24-.26-.24H25.59a5,5,0,0,0-2.15.47,5.32,5.32,0,0,0-1.7,1.25,5.81,5.81,0,0,0-1.52,3.94,6.06,6.06,0,0,0,.37,2.12,5.6,5.6,0,0,0,1,1.81,4.9,4.9,0,0,0,1.63,1.25,4.71,4.71,0,0,0,2.11.47h6.05a.24.24,0,0,0,.25-.24h0Z"/><path class="cls-2" d="M44.17,36.57a4.36,4.36,0,0,0-1-1.76,5.74,5.74,0,0,0-1.55-1.33,3.93,3.93,0,0,0-2-.49H32.91v7.72h2.88V35.24h3.54l.38.07.37.09a1.25,1.25,0,0,1,.44.23,2.11,2.11,0,0,1,.5.42,2.92,2.92,0,0,1,.43.61,4.17,4.17,0,0,1,.29.72,2.76,2.76,0,0,1,.11.74v1a2.87,2.87,0,0,1-.11.77,4.09,4.09,0,0,1-.3.71,3.42,3.42,0,0,1-.43.62,2.9,2.9,0,0,1-.49.45,1.62,1.62,0,0,1-.4.19,2,2,0,0,1-.31.07H33.14a.23.23,0,0,0-.23.14h0v.13h0v1.86h0a.25.25,0,0,0,.25.24h6.72a3.77,3.77,0,0,0,1.78-.51,5.06,5.06,0,0,0,1.47-1.33,5.58,5.58,0,0,0,1-1.75,5.86,5.86,0,0,0,.33-2v-.2A7.44,7.44,0,0,0,44.17,36.57Z"/><path class="cls-2" d="M56.82,33l-.16,0H54.38a.3.3,0,0,0-.27.2h0V40h0v1.39a.29.29,0,0,1-.05.1l-.13.15-.13.15-.07.06a4.9,4.9,0,0,1-.69.11l-.6,0H51.29l-.67,0a2.45,2.45,0,0,1-1.26-.42,3,3,0,0,1-.7-.8,2.1,2.1,0,0,1-.27-1.06V33.31a.25.25,0,0,0,0-.08h0a.23.23,0,0,0-.16-.19l-.15,0H45.84a.29.29,0,0,0-.27.19l0,0v7.14a3,3,0,0,0,.39,1.48,4.63,4.63,0,0,0,1,1.25,4.79,4.79,0,0,0,1.37.88,3.83,3.83,0,0,0,1.52.33H56.6a.44.44,0,0,0,.39-.45V33.32A.27.27,0,0,0,56.82,33Z"/></g></g></svg>